# File created by Blade
# Date/Time:  Mon Nov 15 14:44:42 2010
#---------------------------------------------------------
:version 1.10
:name HOM
:units
  mass 1.0
  length 1.000000
  angle deg
:documentation
     Acclaim Skeleton File
:root
   axis xyz
   order TX TY TZ RX RY RZ
   position 0.000000 0.000000 0.000000
   orientation 0 0 0
:bonedata
   begin
      id 1
      name LeftUpLeg_dum
      direction 1.000000 0.000000 0.000000
      length 4.719518
      axis 0.0 0.0 0.0 xyz
   end
   begin
      id 2
      name RightUpLeg_dum
      direction -1.000000 0.000000 0.000000
      length 4.719518
      axis 0.0 0.0 0.0 xyz
   end
   begin
      id 3
      name Spine_dum
      direction 0.000000 1.000000 0.000000
      length 0.039370
      axis 0.0 0.0 0.0 xyz
   end
   begin
      id 4
      name LeftUpLeg
      direction 0.000000 -1.000000 0.000000
      length 19.141694
      axis 0.0 0.0 0.0 xyz
      dof rx ry rz
   end
   begin
      id 5
      name LeftLeg
      direction 0.000000 -1.000000 0.000000
      length 19.555040
      axis 0.0 0.0 0.0 xyz
      dof rx ry rz
   end
   begin
      id 6
      name LeftFoot
      direction 0.000000 -0.258819 0.965926
      length 6.929396
      axis 15.0 0.0 0.0 xyz
      dof rx ry rz
   end
   begin
      id 7
      name LeftToeBase
      direction 0.000000 0.000000 1.000000
      length 2.952750
      axis 0.0 0.0 0.0 xyz
      dof rx ry rz
   end
   begin
      id 8
      name RightUpLeg
      direction 0.000000 -1.000000 0.000000
      length 19.141694
      axis 0.0 0.0 0.0 xyz
      dof rx ry rz
   end
   begin
      id 9
      name RightLeg
      direction 0.000000 -1.000000 0.000000
      length 19.555040
      axis 0.0 0.0 0.0 xyz
      dof rx ry rz
   end
   begin
      id 10
      name RightFoot
      direction 0.000000 -0.258819 0.965926
      length 6.929396
      axis 15.0 0.0 0.0 xyz
      dof rx ry rz
   end
   begin
      id 11
      name RightToeBase
      direction 0.000000 0.000000 1.000000
      length 2.952750
      axis 0.0 0.0 0.0 xyz
      dof rx ry rz
   end
   begin
      id 12
      name Spine
      direction 0.000000 1.000000 0.000000
      length 11.965764
      axis 0.0 0.0 0.0 xyz
      dof rx ry rz
   end
   begin
      id 13
      name Spine1
      direction 0.000000 1.000000 0.000000
      length 0.000000
      axis 0.0 0.0 0.0 xyz
      dof rx ry rz
   end
   begin
      id 14
      name Spine1_dum1
      direction 0.000000 1.000000 0.000000
      length 9.788721
      axis 0.0 0.0 0.0 xyz
   end
   begin
      id 15
      name Spine1_dum2
      direction 0.000000 1.000000 0.000000
      length 9.788721
      axis 0.0 0.0 0.0 xyz
   end
   begin
      id 16
      name Spine1_dum3
      direction 0.000000 1.000000 0.000000
      length 9.788721
      axis 0.0 0.0 0.0 xyz
   end
   begin
      id 17
      name Neck
      direction 0.000000 1.000000 0.000000
      length 7.029632
      axis 0.0 0.0 0.0 xyz
      dof rx ry rz
   end
   begin
      id 18
      name Head
      direction 0.000000 1.000000 0.000000
      length 4.527550
      axis 0.0 0.0 0.0 xyz
      dof rx ry rz
   end
   begin
      id 19
      name LeftShoulder
      direction 1.000000 -0.000004 0.000000
      length 9.320257
      axis 0.0 0.0 -90.0 xyz
      dof rx ry rz
   end
   begin
      id 20
      name LeftArm
      direction 1.000000 -0.000004 0.000000
      length 12.801352
      axis 0.0 0.0 -90.0 xyz
      dof rx ry rz
   end
   begin
      id 21
      name LeftForeArm
      direction 1.000000 -0.000004 0.000000
      length 11.278127
      axis 0.0 0.0 -90.0 xyz
      dof rx ry rz
   end
   begin
      id 22
      name LeftHand
      direction 0.000000 0.000000 0.000000
      length 0.000000
      axis 0.0 0.0 -90.0 xyz
      dof rx ry rz
   end
   begin
      id 23
      name LeftHand_dum1
      direction 0.000000 0.000000 0.000000
      length 0.000000
      axis 0.0 0.0 -90.0 xyz
   end
   begin
      id 24
      name LeftHand_dum2
      direction 1.000000 -0.000004 0.000000
      length 3.937000
      axis 0.0 0.0 -90.0 xyz
   end
   begin
      id 25
      name LeftHandThumb
      direction 0.000000 0.000000 1.000000
      length 3.937000
      axis 0.0 0.0 -90.0 xyz
      dof rx ry rz
   end
   begin
      id 26
      name RightShoulder
      direction -1.000000 -0.000004 0.000000
      length 9.320257
      axis 0.0 0.0 90.0 xyz
      dof rx ry rz
   end
   begin
      id 27
      name RightArm
      direction -1.000000 -0.000004 0.000000
      length 12.801352
      axis 0.0 0.0 90.0 xyz
      dof rx ry rz
   end
   begin
      id 28
      name RightForeArm
      direction -1.000000 -0.000004 0.000000
      length 11.278127
      axis 0.0 0.0 90.0 xyz
      dof rx ry rz
   end
   begin
      id 29
      name RightHand
      direction 0.000000 0.000000 0.000000
      length 0.000000
      axis 0.0 0.0 90.0 xyz
      dof rx ry rz
   end
   begin
      id 30
      name RightHand_dum1
      direction 0.000000 0.000000 0.000000
      length 0.000000
      axis 0.0 0.0 90.0 xyz
   end
   begin
      id 31
      name RightHand_dum2
      direction -1.000000 -0.000004 0.000000
      length 5.393690
      axis 0.0 0.0 90.0 xyz
   end
   begin
      id 32
      name RightHandThumb
      direction 0.000000 0.000000 1.000000
      length 3.937000
      axis 0.0 0.0 90.0 xyz
      dof rx ry rz
   end
:hierarchy
   begin
      root LeftUpLeg_dum RightUpLeg_dum Spine_dum
      LeftUpLeg_dum LeftUpLeg
      RightUpLeg_dum RightUpLeg
      Spine_dum Spine
      LeftUpLeg LeftLeg
      LeftLeg LeftFoot
      LeftFoot LeftToeBase
      RightUpLeg RightLeg
      RightLeg RightFoot
      RightFoot RightToeBase
      Spine Spine1
      Spine1 Spine1_dum1 Spine1_dum2 Spine1_dum3
      Spine1_dum1 Neck
      Spine1_dum2 LeftShoulder
      Spine1_dum3 RightShoulder
      Neck Head
      LeftShoulder LeftArm
      LeftArm LeftForeArm
      LeftForeArm LeftHand
      LeftHand LeftHand_dum1 LeftHand_dum2
      LeftHand_dum1 LeftHandThumb
      RightShoulder RightArm
      RightArm RightForeArm
      RightForeArm RightHand
      RightHand RightHand_dum1 RightHand_dum2
      RightHand_dum1 RightHandThumb
   end

# File created by Blade
# Date/Time:  Mon Nov 15 14:56:25 2010
# Frame Rate: 200.000 fps
#------------------------------------------------------
:FULLY-SPECIFIED
:DEGREES
288
root  6.271099 37.780907 -62.991458 -8.554378 5.667435 -2.756032
LeftUpLeg  21.225470 6.398042 8.538761
LeftLeg  37.325948 -0.000000 0.000000
LeftFoot  22.910904 11.877764 2.254264
LeftToeBase  -40.979757 0.000000 -0.000000
RightUpLeg  -17.656421 1.126208 6.903551
RightLeg  37.818756 -0.000000 0.000000
RightFoot  -8.570523 -23.144439 -8.314837
RightToeBase  -30.469587 0.000000 -0.000000
Spine  14.534925 -5.148571 -0.289573
Spine1  3.309748 -2.247099 3.168336
Neck  14.838119 -5.219729 0.176986
Head  -23.138355 -3.397324 3.664550
LeftShoulder  -7.682955 11.014520 3.937400
LeftArm  20.012547 18.563752 -75.785249
LeftForeArm  41.543715 -0.000000 0.000000
LeftHand  -4.719264 7.270701 -4.689965
LeftHandThumb  0.000000 -0.000000 0.000000
RightShoulder  -11.757612 -11.401470 2.834061
RightArm  15.821391 -17.819180 74.077697
RightForeArm  13.460319 -0.000000 0.000000
RightHand  -7.846902 -5.015654 16.745303
RightHandThumb  0.000000 -0.000000 0.000000
289
root  6.230325 37.850922 -62.640679 -8.930684 5.435079 -3.158201
LeftUpLeg  20.342550 6.415048 8.894453
LeftLeg  39.462516 -0.000000 0.000000
LeftFoot  24.943769 12.173155 3.733561
LeftToeBase  -36.406373 0.000000 -0.000000
RightUpLeg  -16.454978 1.124535 7.437240
RightLeg  37.171897 -0.000000 0.000000
RightFoot  -8.828933 -23.028503 -8.133409
RightToeBase  -30.577921 0.000000 -0.000000
Spine  14.703605 -5.090533 0.077817
Spine1  3.370452 -2.018233 3.189773
Neck  14.781750 -5.324013 0.181751
Head  -22.920940 -3.426859 3.397096
LeftShoulder  -7.700238 10.997324 4.023861
LeftArm  19.659643 18.275706 -76.119404
LeftForeArm  40.677567 -0.000000 0.000000
LeftHand  -4.766857 6.691991 -4.390956
LeftHandThumb  0.000000 -0.000000 0.000000
RightShoulder  -11.554456 -11.275086 2.566399
RightArm  15.772814 -17.832875 74.255755
RightForeArm  13.394915 -0.000000 0.000000
RightHand  -8.372582 -5.307902 17.176582
RightHandThumb  0.000000 -0.000000 0.000000
290
root  6.190815 37.918488 -62.294529 -9.247926 5.224988 -3.559089
LeftUpLeg  19.428743 6.473316 9.243440
LeftLeg  41.406947 -0.000000 0.000000
LeftFoot  26.943090 12.137243 6.025660
LeftToeBase  -30.218174 0.000000 -0.000000
RightUpLeg  -15.322808 1.133135 7.956730
RightLeg  36.524299 -0.000000 0.000000
RightFoot  -9.030223 -22.906604 -7.967702
RightToeBase  -30.492641 0.000000 -0.000000
Spine  14.910469 -5.063588 0.445305
Spine1  3.299281 -1.808878 3.220820
Neck  14.720385 -5.307508 0.117337
Head  -22.675079 -3.526643 3.267949
LeftShoulder  -7.802786 11.044447 4.070946
LeftArm  19.359853 18.056080 -76.387766
LeftForeArm  39.792499 -0.000000 0.000000
LeftHand  -4.904562 6.726629 -4.359303
LeftHandThumb  0.000000 -0.000000 0.000000
RightShoulder  -11.368541 -11.235676 2.316228
RightArm  15.764678 -17.894102 74.374660
RightForeArm  13.423669 -0.000000 0.000000
RightHand  -8.785454 -5.561732 17.604942
RightHandThumb  0.000000 -0.000000 0.000000
291
root  6.153090 37.986209 -61.950339 -9.563580 5.012695 -3.958670
LeftUpLeg  18.515200 6.537107 9.591490
LeftLeg  43.351378 -0.000000 0.000000
LeftFoot  28.938784 12.023241 8.314443
LeftToeBase  -24.029974 0.000000 -0.000000
RightUpLeg  -14.190606 1.131472 8.476290
RightLeg  35.876701 -0.000000 0.000000
RightFoot  -9.230950 -22.784170 -7.802610
RightToeBase  -30.407361 0.000000 -0.000000
Spine  15.117495 -5.037966 0.812874
Spine1  3.228231 -1.599484 3.251602
Neck  14.659003 -5.291073 0.052907
Head  -22.428967 -3.625873 3.138360
LeftShoulder  -7.905312 11.091653 4.117953
LeftArm  19.061520 17.835126 -76.654584
LeftForeArm  38.907431 -0.000000 0.000000
LeftHand  -5.042257 6.761344 -4.327731
LeftHandThumb  0.000000 -0.000000 0.000000
RightShoulder  -11.182829 -11.195471 2.066224
RightArm  15.756406 -17.955312 74.493616
RightForeArm  13.452422 -0.000000 0.000000
RightHand  -9.200402 -5.812476 18.035316
RightHandThumb  0.000000 -0.000000 0.000000
292
root  6.118564 38.056492 -61.605854 -9.872721 4.816808 -4.267570
LeftUpLeg  17.554040 6.481779 9.778971
LeftLeg  45.275089 -0.000000 0.000000
LeftFoot  29.551643 12.010813 8.396664
LeftToeBase  -21.060431 0.000000 -0.000000
RightUpLeg  -13.036260 1.123062 8.883024
RightLeg  35.183710 -0.000000 0.000000
RightFoot  -9.366833 -22.661845 -7.677121
RightToeBase  -30.412976 0.000000 -0.000000
Spine  15.271496 -4.989253 1.102422
Spine1  3.278389 -1.409694 3.269566
Neck  14.621347 -5.285774 0.003277
Head  -22.339869 -3.713630 3.036839
LeftShoulder  -7.984217 11.091577 4.125735
LeftArm  18.803860 17.615466 -76.863931
LeftForeArm  38.018511 -0.000000 0.000000
LeftHand  -5.184348 6.749004 -4.538494
LeftHandThumb  0.000000 -0.000000 0.000000
RightShoulder  -10.979416 -11.159668 1.884146
RightArm  15.782400 -17.993966 74.516396
RightForeArm  13.623037 -0.000000 0.000000
RightHand  -9.569913 -5.924301 18.497869
RightHandThumb  0.000000 -0.000000 0.000000
